<?xml version="1.0" encoding="UTF-8" standalone="no"?>
<svg
   enable-background="new 0 0 512 512"
   id="Layer_1"
   version="1.1"
   viewBox="0 0 512 512"
   xml:space="preserve"
   sodipodi:docname="android_icon-icons.com_62719.svg"
   inkscape:version="1.1 (c68e22c387, 2021-05-23)"
   xmlns:inkscape="http://www.inkscape.org/namespaces/inkscape"
   xmlns:sodipodi="http://sodipodi.sourceforge.net/DTD/sodipodi-0.dtd"
   xmlns="http://www.w3.org/2000/svg"
   xmlns:svg="http://www.w3.org/2000/svg"><defs
     id="defs19" /><sodipodi:namedview
     id="namedview17"
     pagecolor="#ffffff"
     bordercolor="#666666"
     borderopacity="1.0"
     inkscape:pageshadow="2"
     inkscape:pageopacity="0.0"
     inkscape:pagecheckerboard="0"
     showgrid="false"
     inkscape:zoom="1.015625"
     inkscape:cx="61.538462"
     inkscape:cy="255.50769"
     inkscape:window-width="1366"
     inkscape:window-height="705"
     inkscape:window-x="-8"
     inkscape:window-y="-8"
     inkscape:window-maximized="1"
     inkscape:current-layer="Layer_1" /><g
     id="g14"><path
       d="M257.6,174.9c43.8,0,87.7,0.1,131.5-0.1c4.6,0,6.2,0.8,6.2,5.9c-0.2,64.3-0.4,128.7,0,193   c0.1,19.6-15.7,35.1-34.7,34.3c-5.5-0.2-11,0.2-16.5-0.1c-3.3-0.2-4.2,1-4.1,4.2c0.1,21.2,0.1,42.3,0,63.5   c0,14.6-10,27.5-23.3,30.5c-15,3.4-28.7-3.1-35.3-16.9c-2-4.2-3.2-8.7-3.2-13.5c0.1-21-0.1-42,0.1-63c0-4-1.2-5-5-4.9   c-10.7,0.3-21.3,0.3-32,0c-4.1-0.1-4.9,1.3-4.9,5.1c0.2,20.8,0.1,41.7,0.1,62.5c0,15.1-8.7,26.8-22.5,30.5   c-13.9,3.8-27.7-2.1-35.2-15.2c-2.6-4.6-3.6-9.6-3.6-14.9c0-20.5,0-41,0-61.5c0-7.5,1.1-6.2-6.7-6.5c-9.1-0.3-18.3,1.3-27.2-2.2   c-12.6-5.1-19.6-14.4-21.2-27.8c-0.2-1.8-0.1-3.7-0.1-5.5c0-63.7,0-127.3,0-191c0-6.6,0-6.6,6.8-6.6   C170.2,174.9,213.9,174.9,257.6,174.9z"
       fill="#A4C53B"
       id="path2" /><path
       d="M257.3,162.8c-44.1,0-88.3-0.1-132.4,0.1c-4.7,0-6.3-0.9-6.1-6c1.2-21.8,8.3-41.6,20.4-59.6   c12-17.9,27.6-31.8,46.5-42.1c3.2-1.8,3.4-3.2,1.7-6.1c-6.2-11-12.2-22.1-18.3-33.2c-1.5-2.8-3-5.7,0.7-7.7c3.4-1.8,5,0.8,6.5,3.5   c5.9,11,12,21.8,17.9,32.8c1.9,3.7,3.8,4.6,8,2.9c32.4-13,65.4-13.9,98.8-4.3c4.1,1.2,8.2,2.7,12.1,4.5c3.5,1.6,5.5,1.1,7.4-2.6   c5.4-10.7,11.2-21.1,17.2-31.5c1.5-2.7,2.7-7.8,7.3-5.5c4.8,2.4,1.7,6.4,0,9.5c-5.6,10.6-11.3,21.1-17.4,31.4   c-1.9,3.3-1.5,4.6,1.8,6.4c24.4,13.7,43.4,32.7,55.5,58.2c6.6,13.8,10.2,28.4,11.2,43.7c0.3,4.5-0.9,5.6-5.4,5.6   C346.2,162.7,301.7,162.8,257.3,162.8z M332,102c-0.1-6.5-4.9-11.2-11.4-11.2c-6.3,0-11.5,5.1-11.5,11.3c0,6.2,5.7,11.9,11.8,11.7   C327.2,113.6,332.1,108.4,332,102z M182.8,102.2c0,6.2,5.2,11.6,11.3,11.6c6,0,11.6-5.4,11.6-11.4c0.1-6.8-4.8-11.7-11.6-11.6   C187.6,90.9,182.8,95.7,182.8,102.2z"
       fill="#A5C63C"
       id="path4" /><path
       d="M469,264.7c0,21.5,0.2,43-0.1,64.4c-0.3,20.5-19,34.7-38.8,29.7c-12.9-3.2-22.9-15.5-23-29.3   c-0.2-43.5-0.2-86.9,0-130.4c0.1-16.7,14.6-30.2,31.2-30.1c16.5,0.1,30.4,13.9,30.5,30.7C469.1,221.4,469,243,469,264.7z"
       fill="#A5C63C"
       id="path6" /><path
       d="M107.3,264.9c0,21.2,0.1,42.3,0,63.5c-0.1,18.2-13.2,31.4-31,31.3c-16.9,0-30.2-13.6-30.3-31.3   c-0.1-42.8-0.1-85.6,0-128.5c0-17.1,13.9-31,30.7-30.9c17,0,30.5,13.7,30.6,30.9C107.4,221.6,107.3,243.3,107.3,264.9z"
       fill="#A4C53B"
       id="path8" /><path
       d="M332,102c0.1,6.4-4.8,11.6-11.1,11.8c-6.1,0.2-11.9-5.5-11.8-11.7c0-6.2,5.1-11.3,11.5-11.3   C327.1,90.8,332,95.5,332,102z"
       fill="#FEFEFD"
       id="path10" /><path
       d="M182.8,102.2c0-6.4,4.8-11.3,11.3-11.3c6.8-0.1,11.7,4.8,11.6,11.6c-0.1,6-5.6,11.4-11.6,11.4   C188,113.8,182.8,108.4,182.8,102.2z"
       fill="#FEFEFD"
       id="path12" /></g><path
     style="fill:#128c7e;stroke:none;stroke-width:0.984615;fill-opacity:1"
     d="m 119.61856,159.96153 c -0.93912,-2.95889 1.3552,-18.91106 4.10122,-28.51538 8.29474,-29.01121 31.60031,-58.211761 58.94809,-73.858573 3.04915,-1.74455 5.76257,-3.74171 6.02981,-4.43813 0.57287,-1.492881 -1.05511,-4.817185 -12.15337,-24.816885 C 167.954,12.852332 166.90759,9.1401203 170.971,8.5607845 c 2.69482,-0.384212 3.68512,1.0699976 15.11169,22.1910015 5.42164,10.021408 9.91327,17.200111 10.97218,17.536198 0.98607,0.312965 7.23057,-1.198528 13.87668,-3.358873 20.76187,-6.74873 40.02493,-9.055135 59.15535,-7.082784 13.85517,1.42847 29.46403,4.845487 38.02569,8.324401 3.47557,1.412254 7.31802,2.567734 8.53875,2.567734 2.41306,0 1.72068,1.084536 16.21461,-25.398441 7.53378,-13.7655559 8.45641,-15.0349886 10.73429,-14.7692306 1.7135,0.1999134 2.58946,0.9759546 2.8038,2.4839886 0.28919,2.034642 -8.73116,19.835217 -17.16548,33.87402 -4.03605,6.717951 -4.12498,8.196438 -0.62318,10.361195 29.67225,18.342906 47.46363,37.969022 58.34891,64.366106 5.08821,12.33904 9.88277,35.54225 8.34523,40.38662 -0.60308,1.90013 -2.4905,1.92651 -137.8326,1.92651 H 120.25578 Z m 78.64775,-46.61145 c 5.04,-2.10584 7.51831,-5.9464 7.51831,-11.65091 0,-4.036786 -0.47814,-5.344169 -2.8057,-7.671732 -7.89486,-7.894862 -21.78784,-1.597881 -20.45659,9.271932 0.60704,4.95658 3.37357,8.64083 7.60066,10.12198 4.34176,1.52132 4.3315,1.52141 8.14332,-0.0713 z m 129.61061,-1.53452 c 1.35385,-0.94274 3.06559,-3.58374 3.80388,-5.86889 1.75895,-5.44438 0.005,-10.43046 -4.82346,-13.70806 -6.18901,-4.201587 -14.98886,-1.174321 -17.38726,5.981452 -3.69668,11.029278 8.81789,20.272678 18.40684,13.595498 z"
     id="path58" /><path
     style="fill:#a0a0a0;stroke:none;stroke-width:0.984615"
     d="m 196.2526,504.81791 c -7.67046,-2.74133 -13.4575,-8.01261 -17.24973,-15.71242 l -3.24902,-6.59687 -0.49231,-37.43892 -0.49231,-37.43893 -15.26154,-0.49943 c -15.07036,-0.49316 -15.33906,-0.54137 -21.45006,-3.84796 -7.26634,-3.93175 -11.35153,-8.26707 -14.88115,-15.7923 l -2.5611,-5.46031 -0.24627,-101.90769 c -0.15502,-64.14184 0.10536,-102.45503 0.7026,-103.38462 0.83767,-1.30383 16.84876,-1.43663 136.61551,-1.13312 100.88629,0.25566 135.85472,0.63429 136.40029,1.47692 0.40352,0.62322 0.62506,47.00116 0.49231,103.06209 l -0.24136,101.92896 -3.23618,6.57306 c -3.88491,7.89069 -10.04857,13.67254 -17.579,16.49002 -4.36308,1.63245 -7.69249,2.00207 -18.03354,2.00207 -6.97539,0 -13.38338,0.26894 -14.23998,0.59765 -1.37981,0.52948 -1.55745,4.59317 -1.55745,35.62771 0,28.85061 -0.27273,35.99676 -1.54603,40.51005 -5.27973,18.71433 -25.05898,27.72797 -42.31703,19.28439 -6.23437,-3.05019 -10.64435,-7.80559 -14.1297,-15.23641 l -2.56109,-5.46031 -0.29225,-36.38543 c -0.19356,-24.09766 -0.64992,-36.81638 -1.35133,-37.66154 -1.45803,-1.75682 -38.25641,-1.84381 -40.00565,-0.0946 -0.87298,0.87298 -1.18154,9.98855 -1.18154,34.90538 0,35.61817 -0.52801,41.33197 -4.44471,48.0977 -7.09072,12.24853 -22.62535,18.1355 -35.61038,13.49483 z"
     id="path949" /><path
     style="fill:#a0a0a0;stroke:none;stroke-width:0.984615"
     d="m 66.656482,357.47058 c -8.147401,-2.90611 -14.033703,-8.68184 -18.118615,-17.77827 -1.649292,-3.67271 -1.768636,-8.75535 -1.768636,-75.32308 v -71.38461 l 2.345152,-5.18904 c 2.944994,-6.51628 11.171174,-14.21581 17.487598,-16.36804 11.269216,-3.8398 22.520169,-1.21745 30.963436,7.21691 9.751583,9.7413 9.270133,5.24662 9.235123,86.21709 l -0.0302,69.90769 -2.18976,5.48477 c -2.87624,7.20424 -9.749521,14.07475 -16.671176,16.66447 -6.148937,2.30061 -15.658337,2.54765 -21.252888,0.55211 z"
     id="path988" /><path
     style="fill:#a0a0a0;stroke:none;stroke-width:0.984615"
     d="m 120.44707,160.40873 c -1.0232,-2.6664 0.48367,-15.21878 3.06315,-25.51642 3.134,-12.51138 11.99902,-30.51945 20.6632,-41.974454 8.72726,-11.53842 22.84466,-24.643754 34.86331,-32.36401 6.96215,-4.472178 9.97027,-6.976821 9.98638,-8.314936 0.0127,-1.053215 -4.18353,-9.735338 -9.32491,-19.293606 -10.17848,-18.922703 -11.88617,-23.5914578 -8.62904,-23.5914578 2.35376,0 4.23277,2.7661948 14.3797,21.1692308 4.18025,7.581538 8.44786,14.892308 9.48357,16.246154 l 1.88311,2.461538 8.17684,-2.249008 c 30.73455,-8.453412 37.86885,-9.546921 57.40762,-8.799137 15.40363,0.589526 29.75681,3.159349 43.12469,7.721127 4.76473,1.625962 9.85878,2.818168 11.32014,2.649349 2.80817,-0.324411 2.02402,0.878012 18.50017,-28.368485 4.3741,-7.764361 6.37582,-10.4167998 8.03962,-10.653096 1.61164,-0.228891 2.21538,0.1811676 2.21538,1.504701 0,2.418118 -5.18586,13.121553 -13.17881,27.200609 -3.58243,6.310199 -6.51271,12.472973 -6.51174,13.695053 9.9e-4,1.58049 1.35147,3.070782 4.67693,5.162134 16.44345,10.341152 33.39136,25.763992 42.75314,38.905984 5.94531,8.34598 12.77534,22.12273 15.86446,32 3.43314,10.97722 5.79942,23.27898 5.43884,28.27518 l -0.30436,4.21713 -39.87692,0.60352 c -21.93231,0.33193 -83.42314,0.66424 -136.64628,0.73846 -87.49132,0.122 -96.82679,-0.0147 -97.36819,-1.42556 z m 79.85577,-47.61743 c 3.98878,-2.62943 5.40606,-5.60558 5.44689,-11.43786 0.0296,-4.235044 -0.39298,-5.394933 -2.8091,-7.709722 -3.71563,-3.559802 -9.39775,-4.375948 -14.29306,-2.052971 -4.71185,2.235919 -6.86023,6.383627 -6.22511,12.018343 1.02493,9.09321 10.57537,13.99769 17.88038,9.18221 z m 128.78419,-1.95368 c 5.1535,-5.76727 4.8439,-12.776147 -0.78257,-17.716252 -9.98913,-8.770573 -24.65704,2.845971 -18.44832,14.610512 3.90337,7.39629 13.94748,9.01839 19.23089,3.10574 z"
     id="path1027" /><path
     style="fill:#128c7e;stroke:none;stroke-width:0.984615;fill-opacity:1"
     d="m 424.2395,355.67786 c -4.2852,-2.21831 -7.36959,-4.7356 -9.95304,-8.12307 -6.89665,-9.04304 -6.725,-6.76755 -6.42885,-85.22703 L 408.12308,192 l 2.39416,-4.86479 c 5.15572,-10.4761 15.99169,-17.28906 27.49814,-17.28906 8.73586,0 14.54311,2.44423 20.90388,8.7983 9.75227,9.74198 9.26536,5.18525 9.26536,86.7094 v 70.4 l -2.56805,5.41538 c -5.43169,11.45408 -15.4767,17.72308 -28.39825,17.72308 -5.71902,0 -7.73279,-0.49875 -12.97882,-3.21445 z"
     id="path1066" /><path
     style="font-variation-settings:normal;opacity:1;vector-effect:none;fill:#128c7e;fill-opacity:1;stroke:none;stroke-width:0.969467;stroke-linecap:butt;stroke-linejoin:miter;stroke-miterlimit:4;stroke-dasharray:none;stroke-dashoffset:0;stroke-opacity:1;-inkscape-stroke:none;stop-color:#000000;stop-opacity:1"
     d="m 121.34783,159.47945 c -1.15229,-2.05902 0.21162,-13.89686 2.8236,-24.50706 2.96144,-12.02975 13.58914,-33.07201 22.00457,-43.567852 8.02375,-10.007323 20.10787,-21.310181 29.94655,-28.01044 9.2506,-6.299769 12.9236,-9.621081 12.9236,-11.686157 0,-0.871844 -4.20923,-9.835406 -9.35384,-19.919026 -9.31138,-18.250617 -10.51512,-21.450453 -8.06939,-21.450453 1.45518,0 4.22066,4.290383 15.86649,24.615384 6.18675,10.797474 8.63307,14.247082 10.0378,14.154477 1.02158,-0.06734 9.83279,-2.239893 19.58048,-4.827884 17.13377,-4.548976 18.28108,-4.720353 34.50432,-5.15403 19.99261,-0.534438 32.84157,1.045584 50.31457,6.187118 13.17338,3.876348 16.14286,4.152487 18.30106,1.701858 0.83461,-0.947693 5.58944,-8.885042 10.56629,-17.638555 8.789,-15.458463 12.13015,-20.0732632 13.52403,-18.67938 1.11773,1.117726 -1.54704,7.215785 -10.19184,23.32309 -4.52013,8.422066 -8.21843,16.48388 -8.21843,17.915143 0,2.171409 1.47064,3.609556 8.8818,8.685558 18.53735,12.69647 34.15217,28.486897 42.86274,43.344779 8.749,14.92342 14.91488,33.43794 15.90217,47.7501 l 0.54927,7.96227 -22.44173,0.65311 c -12.34295,0.35922 -73.52348,0.65312 -135.95675,0.65312 -100.82496,0 -113.6092,-0.16827 -114.35736,-1.50517 z M 202.43692,111.36 c 3.01936,-3.01936 3.3477,-3.89483 3.3477,-8.92627 0,-6.591145 -1.01828,-8.845249 -4.90337,-10.854308 -5.68255,-2.938558 -13.78041,-1.219457 -17.19071,3.649422 -1.77535,2.534671 -2.03256,9.756906 -0.45932,12.897426 2.14444,4.28077 6.00445,6.57133 11.08263,6.57653 4.12126,0.004 5.23394,-0.45366 8.12307,-3.3428 z m 124.26855,2.01565 c 5.53623,-3.07215 7.72731,-11.36216 4.60094,-17.407879 -4.08962,-7.908462 -17.60677,-7.776597 -21.73787,0.21206 -3.16232,6.115249 -0.11035,15.060809 6.00069,17.588509 2.96567,1.22668 8.57441,1.0289 11.13624,-0.39269 z"
     id="path1199" /><path
     style="font-variation-settings:normal;opacity:1;vector-effect:none;fill:#128c7e;fill-opacity:1;stroke:none;stroke-width:0.969467;stroke-linecap:butt;stroke-linejoin:miter;stroke-miterlimit:4;stroke-dasharray:none;stroke-dashoffset:0;stroke-opacity:1;-inkscape-stroke:none;stop-color:#000000;stop-opacity:1"
     d="M 65.136016,356.39992 C 59.673762,354.02802 54.838207,349.55933 51.2,343.52118 l -3.446154,-5.7194 -0.287696,-72.61253 c -0.286251,-72.24794 -0.277248,-72.63301 1.793025,-76.69108 7.939711,-15.56312 25.351202,-22.34187 39.546816,-15.3966 6.546599,3.20295 13.935849,10.77811 15.666529,16.06069 0.95174,2.905 1.33935,20.83632 1.61508,74.71466 l 0.36279,70.89231 -2.13249,4.81532 c -2.88765,6.52053 -9.249321,13.21302 -15.210208,16.00117 -5.887786,2.75397 -18.516756,3.18291 -23.971676,0.8142 z"
     id="path1238" /><path
     style="font-variation-settings:normal;opacity:1;vector-effect:none;fill:#128c7e;fill-opacity:1;stroke:none;stroke-width:0.969467;stroke-linecap:butt;stroke-linejoin:miter;stroke-miterlimit:4;stroke-dasharray:none;stroke-dashoffset:0;stroke-opacity:1;-inkscape-stroke:none;stop-color:#000000;stop-opacity:1"
     d="m 196.43077,504.39162 c -7.66237,-2.73127 -14.88202,-10.20138 -18.90419,-19.55999 -0.69551,-1.61828 -1.36138,-16.2604 -1.81869,-39.99205 l -0.72146,-37.43904 -14.87783,-0.6881 c -12.50945,-0.57856 -15.68034,-1.05164 -19.91907,-2.97182 -7.054,-3.19551 -12.59387,-8.5485 -16.09227,-15.54942 l -2.98957,-5.98265 V 279.56826 176.92796 l 10.58462,-0.73487 c 12.3075,-0.8545 258.15563,0.20641 260.5477,1.12434 1.47084,0.56441 1.60614,9.226 1.60614,102.82012 v 102.2038 l -2.58299,4.9786 c -4.00711,7.72353 -8.71503,12.55129 -15.42756,15.82027 -5.67109,2.76181 -7.16784,3.02476 -20.72544,3.64111 -9.18267,0.41745 -14.73221,1.06461 -14.93391,1.74149 -0.17656,0.59245 -0.58972,16.87218 -0.91816,36.17718 -0.65851,38.7066 -1.086,41.82254 -6.75816,49.25925 -8.47184,11.10731 -22.82599,14.82695 -35.14608,9.10749 -6.92505,-3.21487 -10.20016,-6.36857 -14.24082,-13.71289 l -3.25027,-5.9077 -0.60023,-36.87984 c -0.48764,-29.96161 -0.86266,-37.14226 -1.9992,-38.2788 -1.94436,-1.94436 -37.10425,-2.13506 -39.41921,-0.21381 -1.27783,1.06049 -1.54716,4.11359 -1.60016,18.13916 -0.035,9.27524 -0.40821,26.16868 -0.82923,37.54099 -0.72144,19.48715 -0.91101,20.9602 -3.2945,25.6 -5.21994,10.16135 -15.18794,16.27744 -26.33561,16.15879 -3.52,-0.0374 -7.72924,-0.54192 -9.35385,-1.12102 z"
     id="path1277" /></svg>
