<?xml version="1.0" encoding="UTF-8" standalone="no"?>
<svg
   enable-background="new 0 0 512 512"
   id="Layer_1"
   version="1.1"
   viewBox="0 0 512 512"
   xml:space="preserve"
   sodipodi:docname="APPLE_icon-icons.com_65545.svg"
   inkscape:version="1.1 (c68e22c387, 2021-05-23)"
   xmlns:inkscape="http://www.inkscape.org/namespaces/inkscape"
   xmlns:sodipodi="http://sodipodi.sourceforge.net/DTD/sodipodi-0.dtd"
   xmlns="http://www.w3.org/2000/svg"
   xmlns:svg="http://www.w3.org/2000/svg"><defs
     id="defs1354" /><sodipodi:namedview
     id="namedview1352"
     pagecolor="#ffffff"
     bordercolor="#666666"
     borderopacity="1.0"
     inkscape:pageshadow="2"
     inkscape:pageopacity="0.0"
     inkscape:pagecheckerboard="0"
     showgrid="false"
     inkscape:zoom="1.015625"
     inkscape:cx="255.50769"
     inkscape:cy="255.50769"
     inkscape:window-width="1366"
     inkscape:window-height="705"
     inkscape:window-x="-8"
     inkscape:window-y="-8"
     inkscape:window-maximized="1"
     inkscape:current-layer="Layer_1" /><g
     id="g1349"><path
       d="M184.6,127.8c20.5-0.6,37.5,6.4,54.6,12.8c7.6,2.9,15.2,5.8,23.1,7.9c6.2,1.7,12.2,0.9,18.1-1.3   c10.2-3.7,20.3-7.4,30.5-11.2c17.8-6.6,36.1-11.1,55.1-9.9c35.5,2.2,65.6,16,88.5,43.9c4,4.8,3.7,5.3-1.3,8.8   c-37.1,26.1-53.3,62-48.3,106.9c4.4,39.9,25.5,68.5,61.1,86.6c4.6,2.3,5.5,4.4,3.8,9.1c-11.9,32.5-28.7,62.2-50.7,88.9   c-6.6,8-13.3,15.8-21.1,22.5c-17.5,14.9-37.3,18.2-59.4,12.4c-11.3-3-21.8-8.1-32.9-11.8c-21.4-7-42.5-5.7-63.7,1.1   c-11.1,3.6-21.6,8.5-32.9,11.6c-22,6.1-40.6,0.7-57-14.7c-27.8-26-48.4-57.1-63.8-91.6C77,374.8,68.9,348.4,64.5,321   c-5.5-33.9-5.9-67.6,4.5-100.7c8.4-27.1,22.9-50.3,45.4-67.8C135.4,136.2,159.3,127.4,184.6,127.8z"
       fill="#A7A7A7"
       id="path1345" /><path
       d="M265,109.8c1-31.7,14.8-57.1,38.3-77.7c17-14.9,36.9-23.5,58.9-27.6c3.4-0.6,4.8-0.1,4.9,3.7   c0.3,37.6-13.6,68.6-42.3,93c-15.5,13.2-33.2,19.7-53.5,19.9c-5,0.1-7.1-1.3-6.4-6.4C265.2,113.2,265,111.5,265,109.8z"
       fill="#A7A7A7"
       id="path1347" /></g><path
     style="font-variation-settings:normal;opacity:1;vector-effect:none;fill:#128c7e;fill-opacity:1;stroke:none;stroke-width:0.969467;stroke-linecap:butt;stroke-linejoin:miter;stroke-miterlimit:4;stroke-dasharray:none;stroke-dashoffset:0;stroke-opacity:1;-inkscape-stroke:none;stop-color:#000000;stop-opacity:1"
     d="M 186.58462,507.492 C 171.43499,506.01312 159.66524,499.03717 143.28754,481.82975 97.849696,434.08992 68.425902,367.07334 62.076804,296.86154 c -2.623315,-29.01005 0.532243,-56.37533 9.457613,-82.01726 11.53134,-33.12868 33.283673,-58.96676 62.227433,-73.91563 17.24983,-8.90919 31.53312,-12.43634 50.36123,-12.43634 18.39247,0 24.07837,1.40529 64,15.81786 20.58043,7.42998 22.0599,7.35399 48.73846,-2.50328 11.37231,-4.20188 24.02909,-8.64725 28.1262,-9.87861 40.8452,-12.27579 85.59874,-2.59207 116.48089,25.20399 5.82231,5.24047 15.39291,16.12004 15.39291,17.49818 0,0.40897 -2.99077,2.92138 -6.64616,5.58312 -21.16572,15.41221 -37.24658,38.2962 -43.0946,61.32611 -6.84585,26.95933 -3.32574,59.68513 9.01754,83.83443 8.66647,16.95574 24.8917,33.4878 42.69245,43.49983 12.90955,7.26098 12.81853,6.94526 6.4704,22.4447 -14.36925,35.08357 -35.2476,67.74699 -59.10036,92.46039 -13.27602,13.75504 -22.75405,19.49195 -36.95775,22.36999 -14.48078,2.93418 -24.95295,1.13903 -51.51587,-8.8309 -18.7051,-7.02064 -26.7339,-8.69747 -41.54257,-8.67626 -14.2558,0.0205 -23.06351,1.70826 -40.36924,7.73601 -32.12776,11.1904 -37.05484,12.30272 -49.23076,11.11413 z"
     id="path1393" /><path
     style="font-variation-settings:normal;opacity:1;vector-effect:none;fill:#128c7e;fill-opacity:1;stroke:none;stroke-width:0.969467;stroke-linecap:butt;stroke-linejoin:miter;stroke-miterlimit:4;stroke-dasharray:none;stroke-dashoffset:0;stroke-opacity:1;-inkscape-stroke:none;stop-color:#000000;stop-opacity:1"
     d="m 266.56684,119.22618 c -1.19995,-1.19995 -1.53587,-2.79374 -1.22131,-5.79454 0.23865,-2.27664 0.65925,-7.46241 0.93468,-11.52395 2.49912,-36.853084 31.80394,-74.033616 70.54919,-89.509399 8.8107,-3.5192031 27.10956,-8.3116275 28.48661,-7.4605665 1.44044,0.8902435 1.15002,15.5090075 -0.51165,25.7543315 -2.63165,16.225922 -8.33693,30.79131 -17.67487,45.123329 -5.153,7.908912 -26.22643,28.720295 -33.25499,32.841465 -11.64019,6.82519 -23.93258,10.66032 -37.24039,11.61872 -7.10369,0.5116 -8.6695,0.34838 -10.06727,-1.04939 z"
     id="path1432" /></svg>
