<?xml version="1.0" encoding="UTF-8" standalone="no"?>
<svg
   viewBox="0 0 512 512"
   version="1.1"
   id="svg1507"
   sodipodi:docname="computer-interface-monitor-multimedia-pc-screen_107979.svg"
   inkscape:version="1.1 (c68e22c387, 2021-05-23)"
   xmlns:inkscape="http://www.inkscape.org/namespaces/inkscape"
   xmlns:sodipodi="http://sodipodi.sourceforge.net/DTD/sodipodi-0.dtd"
   xmlns="http://www.w3.org/2000/svg"
   xmlns:svg="http://www.w3.org/2000/svg">
  <defs
     id="defs1511" />
  <sodipodi:namedview
     id="namedview1509"
     pagecolor="#ffffff"
     bordercolor="#666666"
     borderopacity="1.0"
     inkscape:pageshadow="2"
     inkscape:pageopacity="0.0"
     inkscape:pagecheckerboard="0"
     showgrid="false"
     inkscape:zoom="1.015625"
     inkscape:cx="255.50769"
     inkscape:cy="255.50769"
     inkscape:window-width="1366"
     inkscape:window-height="705"
     inkscape:window-x="-8"
     inkscape:window-y="-8"
     inkscape:window-maximized="1"
     inkscape:current-layer="svg1507" />
  <title
     id="title1496" />
  <g
     data-name="1"
     id="_1">
    <path
       d="M413,353.15H97.24a43.15,43.15,0,0,1-43.11-43.1V100.36A43.16,43.16,0,0,1,97.24,57.25H413a43.15,43.15,0,0,1,43.1,43.11V310.05A43.14,43.14,0,0,1,413,353.15ZM97.24,87.25a13.12,13.12,0,0,0-13.11,13.11V310.05a13.12,13.12,0,0,0,13.11,13.1H413a13.12,13.12,0,0,0,13.1-13.1V100.36A13.12,13.12,0,0,0,413,87.25Z"
       id="path1498" />
    <path
       d="M324.13,405.65h-138a15,15,0,0,1-14-20.34l20-52.5a15,15,0,0,1,14-9.66h98a15,15,0,0,1,14,9.66l20,52.5a15,15,0,0,1-14,20.34Zm-116.23-30h94.46l-8.57-22.5H216.48Z"
       id="path1500" />
    <path
       d="M354.61,405.65h-199a15,15,0,1,1,0-30h199a15,15,0,0,1,0,30Z"
       id="path1502" />
    <path
       d="M441.13,303.66h-372a15,15,0,1,1,0-30h372a15,15,0,0,1,0,30Z"
       id="path1504" />
  </g>
  <path
     style="font-variation-settings:normal;opacity:1;vector-effect:none;fill:#128c7e;fill-opacity:1;stroke:none;stroke-width:0.969467;stroke-linecap:butt;stroke-linejoin:miter;stroke-miterlimit:4;stroke-dasharray:none;stroke-dashoffset:0;stroke-opacity:1;-inkscape-stroke:none;stop-color:#000000;stop-opacity:1"
     d="m 150.10503,403.78427 c -4.09029,-1.78161 -7.93458,-6.58811 -8.75133,-10.94174 -0.51782,-2.76025 -0.14252,-4.6779 1.6003,-8.17693 3.48745,-7.00169 6.61633,-8.3165 21.35838,-8.97518 l 12.35329,-0.55196 4.08083,-10.83077 4.08083,-10.83077 -47.85982,-0.49614 C 90.869428,352.50289 88.917597,352.40677 83.943488,350.36959 66.675734,343.29746 57.436272,331.66841 55.095998,314.06133 54.40022,308.82664 54.151823,270.66044 54.349647,199.38462 L 54.646154,92.553846 57.006589,86.646154 C 62.958413,71.749942 75.039011,61.318395 89.488236,58.598386 92.936374,57.949287 151.1655,57.6 255.92752,57.6 c 176.0332,0 166.6335,-0.296786 177.4744,5.603571 5.70729,3.106292 14.5385,12.120393 17.43294,17.793955 5.07184,9.941637 5.01187,8.462561 5.02751,124.000164 0.0101,75.32499 -0.31406,109.08314 -1.08289,112.73846 -2.65619,12.62866 -12.4471,25.34731 -23.51794,30.55042 -9.17822,4.31362 -14.21803,4.69805 -61.5916,4.69805 h -44.49146 l 4.22337,11.07692 4.22336,11.07692 12.22324,0.55196 c 13.16477,0.59446 16.84368,1.81897 20.59741,6.85575 4.76449,6.39302 2.34041,16.35826 -4.98,20.47257 l -3.82629,2.15049 -102.26593,-0.0385 c -82.79925,-0.0312 -102.83752,-0.28749 -105.26861,-1.34642 z m 148.67454,-39.23042 -4.22657,-11.07693 -39.30651,-0.25719 -39.3065,-0.25719 -4.09307,10.67873 c -2.25119,5.87329 -4.09307,10.97364 -4.09307,11.33411 0,0.36047 21.43176,0.65539 47.62615,0.65539 h 47.62614 z m 121.35724,-43.03707 c 4.26743,-2.602 6.20165,-6.74489 6.20165,-13.28327 v -5.46428 H 255.01538 83.692308 v 4.9547 c 0,6.55721 2.103024,11.29416 6.094596,13.72776 3.234151,1.9718 4.506526,1.9871 165.228476,1.9871 158.90978,0 162.02878,-0.0363 165.12143,-1.92201 z M 426.33846,185.2533 V 96.291216 l -2.24494,-3.331263 c -1.23471,-1.832195 -3.33932,-3.885034 -4.67692,-4.561862 -1.91581,-0.969413 -36.80891,-1.232899 -164.40122,-1.241434 -160.731588,-0.01075 -161.994131,0.0043 -165.228476,1.976276 -6.348475,3.870558 -6.094596,-0.167102 -6.094596,96.927747 v 88.1547 H 255.01538 426.33846 Z"
     id="path1628" />
  <path
     style="font-variation-settings:normal;opacity:1;vector-effect:none;fill:#128c7e;fill-opacity:1;stroke:none;stroke-width:0.969467;stroke-linecap:butt;stroke-linejoin:miter;stroke-miterlimit:4;stroke-dasharray:none;stroke-dashoffset:0;stroke-opacity:1;-inkscape-stroke:none;stop-color:#000000;stop-opacity:1"
     d="m 90.878571,320.53217 c -4.077574,-2.48624 -6.201648,-6.69855 -6.201648,-12.29866 v -4.47966 H 255.01538 425.35385 l -0.0145,4.67692 c -0.0181,5.82784 -1.53528,8.90714 -5.80697,11.78583 l -3.33131,2.24494 -161.08516,-0.004 c -158.029559,-0.004 -161.144954,-0.0401 -164.237359,-1.92569 z"
     id="path1706" />
</svg>
